<svg width="200" height="200" viewBox="0 0 200 200" fill="none" xmlns="http://www.w3.org/2000/svg">
  <path d="M-20 -20 C 50 10 100 80 80 150 C 60 220 -10 250 -40 200" stroke="#000000" stroke-width="2" stroke-linecap="round"/>
  <path d="M 30 10 C 60 5 90 20 100 50 C 110 80 80 110 50 100 C 20 90 0 50 30 10 Z" stroke="#000000" stroke-width="1.5" stroke-linejoin="round"/>
  <path d="M 80 60 C 120 40 160 60 170 100 C 180 140 140 180 100 160 C 60 140 40 100 80 60 Z" stroke="#000000" stroke-width="1.5" stroke-linejoin="round"/>
  <path d="M 50 120 C 70 110 90 120 100 140 C 110 160 90 180 70 170 C 50 160 40 140 50 120 Z" stroke="#000000" stroke-width="1.5" stroke-linejoin="round"/>
  <circle cx="120" cy="30" r="4" fill="#000000"/>
  <circle cx="150" cy="80" r="3" fill="#000000"/>
  <circle cx="90" cy="180" r="5" fill="#000000"/>
  <circle cx="20" cy="130" r="3" fill="#000000"/>
</svg>
